<mxfile host="app.diagrams.net" modified="2023-11-03T07:35:02.810Z" agent="Mozilla/5.0 (Windows NT 10.0; Win64; x64) AppleWebKit/537.36 (KHTML, like Gecko) Chrome/118.0.0.0 Safari/537.36" etag="YVw4AaTNZHJLWstDQJXw" version="22.0.8" type="github">
  <diagram id="R2lEEEUBdFMjLlhIrx00" name="Page-1">
    <mxGraphModel dx="1776" dy="1843" grid="1" gridSize="10" guides="1" tooltips="1" connect="1" arrows="1" fold="1" page="1" pageScale="1" pageWidth="850" pageHeight="1100" math="0" shadow="0" extFonts="Permanent Marker^https://fonts.googleapis.com/css?family=Permanent+Marker">
      <root>
        <mxCell id="0" />
        <mxCell id="1" parent="0" />
        <mxCell id="yv7OCWk90tdqH3QV9Rss-1" value="회원" style="rounded=0;whiteSpace=wrap;html=1;strokeWidth=1;" vertex="1" parent="1">
          <mxGeometry x="-560" y="-840" width="80" height="40" as="geometry" />
        </mxCell>
        <mxCell id="yv7OCWk90tdqH3QV9Rss-2" value="좌석" style="rounded=0;whiteSpace=wrap;html=1;" vertex="1" parent="1">
          <mxGeometry x="550" y="320" width="80" height="40" as="geometry" />
        </mxCell>
        <mxCell id="yv7OCWk90tdqH3QV9Rss-3" value="등록" style="rhombus;whiteSpace=wrap;html=1;" vertex="1" parent="1">
          <mxGeometry x="400" y="320" width="80" height="40" as="geometry" />
        </mxCell>
        <mxCell id="yv7OCWk90tdqH3QV9Rss-5" value="좌석" style="rounded=0;whiteSpace=wrap;html=1;" vertex="1" parent="1">
          <mxGeometry x="-280" y="-840" width="80" height="40" as="geometry" />
        </mxCell>
        <mxCell id="yv7OCWk90tdqH3QV9Rss-7" value="등록" style="rhombus;whiteSpace=wrap;html=1;" vertex="1" parent="1">
          <mxGeometry x="-420" y="-840" width="80" height="40" as="geometry" />
        </mxCell>
        <mxCell id="yv7OCWk90tdqH3QV9Rss-9" value="카페" style="rounded=0;whiteSpace=wrap;html=1;" vertex="1" parent="1">
          <mxGeometry x="-560" y="-680" width="80" height="40" as="geometry" />
        </mxCell>
        <mxCell id="yv7OCWk90tdqH3QV9Rss-10" value="주문" style="rhombus;whiteSpace=wrap;html=1;" vertex="1" parent="1">
          <mxGeometry x="-560" y="-760" width="80" height="40" as="geometry" />
        </mxCell>
        <mxCell id="yv7OCWk90tdqH3QV9Rss-11" value="" style="endArrow=none;html=1;rounded=0;entryX=0;entryY=0.5;entryDx=0;entryDy=0;exitX=1;exitY=0.5;exitDx=0;exitDy=0;" edge="1" parent="1" source="yv7OCWk90tdqH3QV9Rss-1" target="yv7OCWk90tdqH3QV9Rss-7">
          <mxGeometry width="50" height="50" relative="1" as="geometry">
            <mxPoint x="-510" y="-810" as="sourcePoint" />
            <mxPoint x="-460" y="-860" as="targetPoint" />
          </mxGeometry>
        </mxCell>
        <mxCell id="yv7OCWk90tdqH3QV9Rss-12" value="" style="endArrow=none;html=1;rounded=0;entryX=0;entryY=0.5;entryDx=0;entryDy=0;exitX=1;exitY=0.5;exitDx=0;exitDy=0;" edge="1" parent="1" source="yv7OCWk90tdqH3QV9Rss-7" target="yv7OCWk90tdqH3QV9Rss-5">
          <mxGeometry width="50" height="50" relative="1" as="geometry">
            <mxPoint x="-360" y="-795" as="sourcePoint" />
            <mxPoint x="-310" y="-845" as="targetPoint" />
          </mxGeometry>
        </mxCell>
        <mxCell id="yv7OCWk90tdqH3QV9Rss-13" value="" style="endArrow=none;html=1;rounded=0;exitX=0.5;exitY=0;exitDx=0;exitDy=0;entryX=0.5;entryY=1;entryDx=0;entryDy=0;" edge="1" parent="1" source="yv7OCWk90tdqH3QV9Rss-10" target="yv7OCWk90tdqH3QV9Rss-1">
          <mxGeometry width="50" height="50" relative="1" as="geometry">
            <mxPoint x="-510" y="-810" as="sourcePoint" />
            <mxPoint x="-460" y="-860" as="targetPoint" />
          </mxGeometry>
        </mxCell>
        <mxCell id="yv7OCWk90tdqH3QV9Rss-15" value="" style="endArrow=none;html=1;rounded=0;exitX=0.5;exitY=1;exitDx=0;exitDy=0;entryX=0.5;entryY=0;entryDx=0;entryDy=0;" edge="1" parent="1" source="yv7OCWk90tdqH3QV9Rss-10" target="yv7OCWk90tdqH3QV9Rss-9">
          <mxGeometry width="50" height="50" relative="1" as="geometry">
            <mxPoint x="-520" y="-710" as="sourcePoint" />
            <mxPoint x="-520" y="-690" as="targetPoint" />
          </mxGeometry>
        </mxCell>
        <mxCell id="yv7OCWk90tdqH3QV9Rss-16" value="" style="endArrow=none;html=1;rounded=0;" edge="1" parent="1" target="yv7OCWk90tdqH3QV9Rss-17">
          <mxGeometry width="50" height="50" relative="1" as="geometry">
            <mxPoint x="-560" y="-840" as="sourcePoint" />
            <mxPoint x="-590" y="-880" as="targetPoint" />
          </mxGeometry>
        </mxCell>
        <mxCell id="yv7OCWk90tdqH3QV9Rss-17" value="회원id" style="ellipse;whiteSpace=wrap;html=1;" vertex="1" parent="1">
          <mxGeometry x="-620" y="-900" width="50" height="30" as="geometry" />
        </mxCell>
        <mxCell id="yv7OCWk90tdqH3QV9Rss-18" value="이름" style="ellipse;whiteSpace=wrap;html=1;" vertex="1" parent="1">
          <mxGeometry x="-545" y="-910" width="50" height="30" as="geometry" />
        </mxCell>
        <mxCell id="yv7OCWk90tdqH3QV9Rss-19" value="" style="endArrow=none;html=1;rounded=0;entryX=0.5;entryY=1;entryDx=0;entryDy=0;exitX=0.5;exitY=0;exitDx=0;exitDy=0;" edge="1" parent="1" source="yv7OCWk90tdqH3QV9Rss-1" target="yv7OCWk90tdqH3QV9Rss-18">
          <mxGeometry width="50" height="50" relative="1" as="geometry">
            <mxPoint x="-510" y="-810" as="sourcePoint" />
            <mxPoint x="-460" y="-860" as="targetPoint" />
          </mxGeometry>
        </mxCell>
        <mxCell id="yv7OCWk90tdqH3QV9Rss-20" value="" style="endArrow=none;html=1;rounded=0;" edge="1" parent="1">
          <mxGeometry width="50" height="50" relative="1" as="geometry">
            <mxPoint x="-610" y="-820" as="sourcePoint" />
            <mxPoint x="-560" y="-820" as="targetPoint" />
          </mxGeometry>
        </mxCell>
        <mxCell id="yv7OCWk90tdqH3QV9Rss-21" value="비밀번호" style="ellipse;whiteSpace=wrap;html=1;" vertex="1" parent="1">
          <mxGeometry x="-660" y="-835" width="60" height="30" as="geometry" />
        </mxCell>
        <mxCell id="yv7OCWk90tdqH3QV9Rss-23" value="좌석번호" style="ellipse;whiteSpace=wrap;html=1;" vertex="1" parent="1">
          <mxGeometry x="-350" y="-910" width="60" height="30" as="geometry" />
        </mxCell>
        <mxCell id="yv7OCWk90tdqH3QV9Rss-24" value="" style="endArrow=none;html=1;rounded=0;entryX=0.5;entryY=1;entryDx=0;entryDy=0;exitX=0.5;exitY=0;exitDx=0;exitDy=0;" edge="1" parent="1" source="yv7OCWk90tdqH3QV9Rss-5" target="yv7OCWk90tdqH3QV9Rss-41">
          <mxGeometry width="50" height="50" relative="1" as="geometry">
            <mxPoint x="-340" y="-680" as="sourcePoint" />
            <mxPoint x="-300" y="-700" as="targetPoint" />
          </mxGeometry>
        </mxCell>
        <mxCell id="yv7OCWk90tdqH3QV9Rss-26" value="" style="endArrow=none;html=1;rounded=0;entryX=0.5;entryY=1;entryDx=0;entryDy=0;exitX=0;exitY=0;exitDx=0;exitDy=0;" edge="1" parent="1" source="yv7OCWk90tdqH3QV9Rss-5" target="yv7OCWk90tdqH3QV9Rss-23">
          <mxGeometry width="50" height="50" relative="1" as="geometry">
            <mxPoint x="-270" y="-840" as="sourcePoint" />
            <mxPoint x="-220" y="-890" as="targetPoint" />
          </mxGeometry>
        </mxCell>
        <mxCell id="yv7OCWk90tdqH3QV9Rss-29" value="" style="endArrow=none;html=1;rounded=0;entryX=0.5;entryY=1;entryDx=0;entryDy=0;exitX=1;exitY=0;exitDx=0;exitDy=0;" edge="1" parent="1" source="yv7OCWk90tdqH3QV9Rss-5" target="yv7OCWk90tdqH3QV9Rss-43">
          <mxGeometry width="50" height="50" relative="1" as="geometry">
            <mxPoint x="-310" y="-650" as="sourcePoint" />
            <mxPoint x="-270" y="-670" as="targetPoint" />
          </mxGeometry>
        </mxCell>
        <mxCell id="yv7OCWk90tdqH3QV9Rss-30" value="" style="endArrow=none;html=1;rounded=0;" edge="1" parent="1">
          <mxGeometry width="50" height="50" relative="1" as="geometry">
            <mxPoint x="-300" y="-640" as="sourcePoint" />
            <mxPoint x="-260" y="-660" as="targetPoint" />
          </mxGeometry>
        </mxCell>
        <mxCell id="yv7OCWk90tdqH3QV9Rss-31" value="" style="endArrow=none;html=1;rounded=0;" edge="1" parent="1">
          <mxGeometry width="50" height="50" relative="1" as="geometry">
            <mxPoint x="-290" y="-630" as="sourcePoint" />
            <mxPoint x="-250" y="-650" as="targetPoint" />
          </mxGeometry>
        </mxCell>
        <mxCell id="yv7OCWk90tdqH3QV9Rss-32" value="" style="endArrow=none;html=1;rounded=0;" edge="1" parent="1">
          <mxGeometry width="50" height="50" relative="1" as="geometry">
            <mxPoint x="-280" y="-620" as="sourcePoint" />
            <mxPoint x="-240" y="-640" as="targetPoint" />
          </mxGeometry>
        </mxCell>
        <mxCell id="yv7OCWk90tdqH3QV9Rss-33" value="" style="endArrow=none;html=1;rounded=0;" edge="1" parent="1">
          <mxGeometry width="50" height="50" relative="1" as="geometry">
            <mxPoint x="-270" y="-610" as="sourcePoint" />
            <mxPoint x="-230" y="-630" as="targetPoint" />
          </mxGeometry>
        </mxCell>
        <mxCell id="yv7OCWk90tdqH3QV9Rss-34" value="" style="endArrow=none;html=1;rounded=0;" edge="1" parent="1">
          <mxGeometry width="50" height="50" relative="1" as="geometry">
            <mxPoint x="-260" y="-600" as="sourcePoint" />
            <mxPoint x="-220" y="-620" as="targetPoint" />
          </mxGeometry>
        </mxCell>
        <mxCell id="yv7OCWk90tdqH3QV9Rss-35" value="" style="endArrow=none;html=1;rounded=0;" edge="1" parent="1">
          <mxGeometry width="50" height="50" relative="1" as="geometry">
            <mxPoint x="-250" y="-590" as="sourcePoint" />
            <mxPoint x="-210" y="-610" as="targetPoint" />
          </mxGeometry>
        </mxCell>
        <mxCell id="yv7OCWk90tdqH3QV9Rss-36" value="" style="endArrow=none;html=1;rounded=0;" edge="1" parent="1">
          <mxGeometry width="50" height="50" relative="1" as="geometry">
            <mxPoint x="-240" y="-580" as="sourcePoint" />
            <mxPoint x="-200" y="-600" as="targetPoint" />
          </mxGeometry>
        </mxCell>
        <mxCell id="yv7OCWk90tdqH3QV9Rss-37" value="" style="endArrow=none;html=1;rounded=0;" edge="1" parent="1">
          <mxGeometry width="50" height="50" relative="1" as="geometry">
            <mxPoint x="-230" y="-570" as="sourcePoint" />
            <mxPoint x="-190" y="-590" as="targetPoint" />
          </mxGeometry>
        </mxCell>
        <mxCell id="yv7OCWk90tdqH3QV9Rss-38" value="" style="endArrow=none;html=1;rounded=0;" edge="1" parent="1">
          <mxGeometry width="50" height="50" relative="1" as="geometry">
            <mxPoint x="-220" y="-560" as="sourcePoint" />
            <mxPoint x="-180" y="-580" as="targetPoint" />
          </mxGeometry>
        </mxCell>
        <mxCell id="yv7OCWk90tdqH3QV9Rss-39" value="" style="endArrow=none;html=1;rounded=0;" edge="1" parent="1">
          <mxGeometry width="50" height="50" relative="1" as="geometry">
            <mxPoint x="-210" y="-550" as="sourcePoint" />
            <mxPoint x="-170" y="-570" as="targetPoint" />
          </mxGeometry>
        </mxCell>
        <mxCell id="yv7OCWk90tdqH3QV9Rss-40" value="" style="endArrow=none;html=1;rounded=0;" edge="1" parent="1">
          <mxGeometry width="50" height="50" relative="1" as="geometry">
            <mxPoint x="-200" y="-540" as="sourcePoint" />
            <mxPoint x="-160" y="-560" as="targetPoint" />
          </mxGeometry>
        </mxCell>
        <mxCell id="yv7OCWk90tdqH3QV9Rss-41" value="좌석타입" style="ellipse;whiteSpace=wrap;html=1;" vertex="1" parent="1">
          <mxGeometry x="-270" y="-910" width="60" height="30" as="geometry" />
        </mxCell>
        <mxCell id="yv7OCWk90tdqH3QV9Rss-42" value="" style="endArrow=none;html=1;rounded=0;" edge="1" parent="1">
          <mxGeometry width="50" height="50" relative="1" as="geometry">
            <mxPoint x="-510" y="-610" as="sourcePoint" />
            <mxPoint x="-460" y="-660" as="targetPoint" />
          </mxGeometry>
        </mxCell>
        <mxCell id="yv7OCWk90tdqH3QV9Rss-43" value="좌석이름" style="ellipse;whiteSpace=wrap;html=1;" vertex="1" parent="1">
          <mxGeometry x="-190" y="-910" width="60" height="30" as="geometry" />
        </mxCell>
      </root>
    </mxGraphModel>
  </diagram>
</mxfile>
